<svg width="43" height="43" viewBox="0 0 43 43" fill="none" xmlns="http://www.w3.org/2000/svg">
<path d="M21.6678 1.60156C32.3971 1.60156 41.1278 10.4635 41.1278 21.3542C41.1278 32.2448 32.3971 41.1068 21.6678 41.1068C10.9385 41.1068 2.20773 32.2448 2.20773 21.3542C2.20773 10.4635 10.9385 1.60156 21.6678 1.60156ZM21.6678 0C10.0443 0 0.629883 9.55599 0.629883 21.3542C0.629883 33.1523 10.0443 42.7083 21.6678 42.7083C33.2912 42.7083 42.7057 33.1523 42.7057 21.3542C42.7057 9.55599 33.2912 0 21.6678 0Z" fill="white"/>
<path d="M18.8796 28.134L28.8726 22.2616C29.1882 22.048 29.3986 21.7277 29.3986 21.354C29.3986 20.9803 29.1882 20.6066 28.8726 20.4465L18.8796 14.5741C18.564 14.3605 18.1433 14.3605 17.8277 14.5741C17.5121 14.7876 17.3018 15.1079 17.3018 15.4816V27.2264C17.3018 27.6001 17.5121 27.9738 17.8277 28.134C18.1433 28.2942 18.5114 28.3475 18.8796 28.134Z" fill="white"/>
</svg>
